<svg xmlns="http://www.w3.org/2000/svg" width="375" height="1600" viewBox="0 0 375 1600" font-family="'Noto Sans TC', system-ui">

  <defs>
    <linearGradient id="brandGradient" x1="0%" y1="0%" x2="100%" y2="100%">
      <stop offset="0%" stop-color="#1B5E3F"/>
      <stop offset="50%" stop-color="#D4B78A"/>
      <stop offset="100%" stop-color="#E6435A"/>
    </linearGradient>
    <linearGradient id="greenGradient" x1="0%" y1="0%" x2="100%" y2="0%">
      <stop offset="0%" stop-color="#1B5E3F"/>
      <stop offset="100%" stop-color="#3BBF7A"/>
    </linearGradient>
  </defs>

  <rect width="375" height="1600" fill="#0B1612"/>

  <!-- Status bar -->
  <rect x="0" y="0" width="375" height="44" fill="#0B1612"/>
  <text x="20" y="28" font-family="'Noto Sans TC'" font-size="15" font-weight="600" fill="#F0EBDD">9:41</text>
  <circle cx="310" cy="22" r="2" fill="#F0EBDD"/>
  <circle cx="320" cy="22" r="2" fill="#F0EBDD"/>
  <circle cx="330" cy="22" r="2" fill="#F0EBDD"/>
  <circle cx="340" cy="22" r="2" fill="#F0EBDD"/>

  <!-- Brandbar -->
  <rect x="0" y="44" width="375" height="64" fill="#0B1612"/>
  <g transform="translate(20,56)">
    <rect x="0" y="0" width="40" height="40" rx="10" fill="url(#brandGradient)"/>
    <text x="20" y="27" font-family="'Noto Sans TC'" font-size="20" font-weight="800" fill="#F0EBDD" text-anchor="middle">天</text>
  </g>
  <text x="72" y="76" font-family="'Noto Sans TC'" font-size="15" font-weight="700" fill="#F0EBDD">天喜娛樂</text>
  <text x="72" y="94" font-family="'JetBrains Mono'" font-size="10" font-weight="600" fill="#B8B0A0" letter-spacing="1.5">TIANXI ENTERTAINMENT</text>
  <circle cx="340" cy="76" r="14" fill="none" stroke="#2A3A32" stroke-width="1.5"/>
  <circle cx="340" cy="72" r="5" fill="#3BBF7A"/>

  <!-- Beta pill -->
  <rect x="20" y="120" width="180" height="28" rx="14" fill="#1B5E3F"/>
  <circle cx="34" cy="134" r="4" fill="#3BBF7A"/>
  <text x="44" y="138" font-family="'Noto Sans TC'" font-size="12" font-weight="700" fill="#3BBF7A">Beta 免費 · 全功能開放</text>

  <text x="20" y="186" font-family="'Noto Sans TC'" font-size="24" font-weight="800" fill="#F0EBDD">我的儀表板</text>
  <text x="20" y="208" font-family="'Noto Sans TC'" font-size="13" fill="#B8B0A0">今日馬圈 · 一眼睇晒</text>

  <rect x="20" y="234" width="160" height="88" rx="14" fill="#13201C" stroke="#2A3A32" stroke-width="1"/>
  <text x="36" y="256" font-family="'Noto Sans TC'" font-size="11" fill="#B8B0A0">今日賽事</text>
  <text x="36" y="294" font-family="'JetBrains Mono'" font-size="30" font-weight="800" fill="#3BBF7A">8</text>
  <text x="90" y="294" font-family="'Noto Sans TC'" font-size="12" fill="#B8B0A0">場</text>

  <rect x="195" y="234" width="160" height="88" rx="14" fill="#13201C" stroke="#2A3A32" stroke-width="1"/>
  <text x="211" y="256" font-family="'Noto Sans TC'" font-size="11" fill="#B8B0A0">我心水</text>
  <text x="211" y="294" font-family="'JetBrains Mono'" font-size="30" font-weight="800" fill="#E8B838">5</text>
  <text x="265" y="294" font-family="'Noto Sans TC'" font-size="12" fill="#B8B0A0">隻</text>

  <rect x="20" y="334" width="160" height="88" rx="14" fill="#13201C" stroke="#2A3A32" stroke-width="1"/>
  <text x="36" y="356" font-family="'Noto Sans TC'" font-size="11" fill="#B8B0A0">AI 準繩度</text>
  <text x="36" y="394" font-family="'JetBrains Mono'" font-size="30" font-weight="800" fill="#D4B78A">72</text>
  <text x="90" y="394" font-family="'Noto Sans TC'" font-size="12" fill="#B8B0A0">%</text>

  <rect x="195" y="334" width="160" height="88" rx="14" fill="#13201C" stroke="#2A3A32" stroke-width="1"/>
  <text x="211" y="356" font-family="'Noto Sans TC'" font-size="11" fill="#B8B0A0">值博提醒</text>
  <text x="211" y="394" font-family="'JetBrains Mono'" font-size="30" font-weight="800" fill="#E6435A">3</text>
  <text x="265" y="394" font-family="'Noto Sans TC'" font-size="12" fill="#B8B0A0">個</text>

  <rect x="20" y="454" width="335" height="150" rx="16" fill="#1B2A24" stroke="#E8B838" stroke-width="1.5"/>
  <text x="36" y="478" font-family="'Noto Sans TC'" font-size="11" font-weight="700" fill="#E8B838" letter-spacing="1.5">NEXT RACE</text>
  <text x="36" y="508" font-family="'Noto Sans TC'" font-size="18" font-weight="700" fill="#F0EBDD">第 3 場 · 沙田 1200M</text>
  <text x="36" y="530" font-family="'Noto Sans TC'" font-size="12" fill="#B8B0A0">場地：好地 · 天氣：晴</text>
  <text x="36" y="572" font-family="'JetBrains Mono'" font-size="32" font-weight="800" fill="#F0EBDD">02:14:07</text>
  <text x="220" y="572" font-family="'Noto Sans TC'" font-size="11" fill="#7A7368">倒數至開跑</text>

  <text x="20" y="644" font-family="'Noto Sans TC'" font-size="18" font-weight="700" fill="#F0EBDD">我嘅心水追蹤</text>
  <text x="335" y="644" font-family="'Noto Sans TC'" font-size="12" fill="#3BBF7A" text-anchor="end">查看全部 ›</text>

  <rect x="20" y="664" width="335" height="76" rx="12" fill="#13201C" stroke="#2A3A32" stroke-width="1"/>
  <rect x="20" y="664" width="4" height="76" rx="2" fill="#3BBF7A"/>
  <text x="36" y="690" font-family="'Noto Sans TC'" font-size="16" font-weight="700" fill="#F0EBDD">時時精綵</text>
  <text x="36" y="710" font-family="'JetBrains Mono'" font-size="10" fill="#7A7368">#E234</text>
  <text x="95" y="710" font-family="'Noto Sans TC'" font-size="11" fill="#B8B0A0">第 3 場 · 2 檔</text>
  <text x="270" y="694" font-family="'Noto Sans TC'" font-size="10" fill="#7A7368">Elo</text>
  <text x="270" y="716" font-family="'JetBrains Mono'" font-size="18" font-weight="700" fill="#3BBF7A">1768</text>
  <text x="340" y="716" font-family="'Noto Sans TC'" font-size="16" font-weight="700" fill="#3BBF7A">↑</text>

  <rect x="20" y="750" width="335" height="76" rx="12" fill="#13201C" stroke="#2A3A32" stroke-width="1"/>
  <rect x="20" y="750" width="4" height="76" rx="2" fill="#E8B838"/>
  <text x="36" y="776" font-family="'Noto Sans TC'" font-size="16" font-weight="700" fill="#F0EBDD">福逸</text>
  <text x="36" y="796" font-family="'JetBrains Mono'" font-size="10" fill="#7A7368">#F102</text>
  <text x="95" y="796" font-family="'Noto Sans TC'" font-size="11" fill="#B8B0A0">第 5 場 · 7 檔</text>
  <text x="270" y="780" font-family="'Noto Sans TC'" font-size="10" fill="#7A7368">Elo</text>
  <text x="270" y="802" font-family="'JetBrains Mono'" font-size="18" font-weight="700" fill="#E8B838">1742</text>
  <text x="340" y="802" font-family="'Noto Sans TC'" font-size="16" font-weight="700" fill="#E8B838">·</text>

  <rect x="20" y="836" width="335" height="76" rx="12" fill="#13201C" stroke="#2A3A32" stroke-width="1"/>
  <rect x="20" y="836" width="4" height="76" rx="2" fill="#E6435A"/>
  <text x="36" y="862" font-family="'Noto Sans TC'" font-size="16" font-weight="700" fill="#F0EBDD">北極光</text>
  <text x="36" y="882" font-family="'JetBrains Mono'" font-size="10" fill="#7A7368">#G015</text>
  <text x="95" y="882" font-family="'Noto Sans TC'" font-size="11" fill="#B8B0A0">第 7 場 · 1 檔</text>
  <text x="270" y="866" font-family="'Noto Sans TC'" font-size="10" fill="#7A7368">Elo</text>
  <text x="270" y="888" font-family="'JetBrains Mono'" font-size="18" font-weight="700" fill="#E6435A">1715</text>
  <text x="340" y="888" font-family="'Noto Sans TC'" font-size="16" font-weight="700" fill="#E6435A">↓</text>

  <rect x="20" y="932" width="335" height="80" rx="12" fill="#1B5E3F" stroke="#3BBF7A" stroke-width="1"/>
  <text x="36" y="956" font-family="'Noto Sans TC'" font-size="11" font-weight="700" fill="#3BBF7A" letter-spacing="1.2">BETA 貼士</text>
  <text x="36" y="978" font-family="'Noto Sans TC'" font-size="14" font-weight="700" fill="#F0EBDD">今日選馬神器已分析全 8 場</text>
  <text x="36" y="996" font-family="'Noto Sans TC'" font-size="11" fill="#B8B0A0">有 3 隻馬被標記為「值博度高」</text>

  <rect x="20" y="1032" width="335" height="60" rx="10" fill="#13201C" stroke="#2A3A32" stroke-width="1" stroke-dasharray="4 4"/>
  <text x="187" y="1057" font-family="'Noto Sans TC'" font-size="12" font-weight="600" fill="#D4B78A" text-anchor="middle">Beta 反饋 · 幫我哋改進</text>
  <text x="187" y="1077" font-family="'Noto Sans TC'" font-size="10" fill="#B8B0A0" text-anchor="middle">⌇ 告訴我哋你想多啲邊啲功能 →</text>
<rect x="0" y="1508" width="375" height="72" fill="#13201C" stroke="#2A3A32" stroke-width="1"/>
  <circle cx="37" cy="1528" r="14" fill="#1B2A24" stroke="#3BBF7A" stroke-width="1.5"/>
  <text x="37" y="1533" font-family="'Noto Sans TC'" font-size="12" font-weight="700" fill="#3BBF7A" text-anchor="middle">儀</text>
  <text x="37" y="1558" font-family="'Noto Sans TC'" font-size="9" font-weight="600" fill="#3BBF7A" text-anchor="middle">儀表板</text>
  <circle cx="112" cy="1528" r="14" fill="none" stroke="#7A7368" stroke-width="1.5"/>
  <text x="112" y="1533" font-family="'Noto Sans TC'" font-size="12" font-weight="700" fill="#7A7368" text-anchor="middle">神</text>
  <text x="112" y="1558" font-family="'Noto Sans TC'" font-size="9" font-weight="600" fill="#7A7368" text-anchor="middle">選馬神器</text>
  <circle cx="187" cy="1528" r="14" fill="none" stroke="#7A7368" stroke-width="1.5"/>
  <text x="187" y="1533" font-family="'Noto Sans TC'" font-size="12" font-weight="700" fill="#7A7368" text-anchor="middle">日</text>
  <text x="187" y="1558" font-family="'Noto Sans TC'" font-size="9" font-weight="600" fill="#7A7368" text-anchor="middle">賽馬日程</text>
  <circle cx="262" cy="1528" r="14" fill="none" stroke="#7A7368" stroke-width="1.5"/>
  <text x="262" y="1533" font-family="'Noto Sans TC'" font-size="12" font-weight="700" fill="#7A7368" text-anchor="middle">科</text>
  <text x="262" y="1558" font-family="'Noto Sans TC'" font-size="9" font-weight="600" fill="#7A7368" text-anchor="middle">馬匹百科</text>
  <circle cx="337" cy="1528" r="14" fill="none" stroke="#7A7368" stroke-width="1.5"/>
  <text x="337" y="1533" font-family="'Noto Sans TC'" font-size="12" font-weight="700" fill="#7A7368" text-anchor="middle">聊</text>
  <text x="337" y="1558" font-family="'Noto Sans TC'" font-size="9" font-weight="600" fill="#7A7368" text-anchor="middle">馬圈聊天室</text>

</svg>