<svg xmlns="http://www.w3.org/2000/svg" width="375" height="1700" viewBox="0 0 375 1700" font-family="'Noto Sans TC', 'PingFang HK', sans-serif">
  <defs>
    <linearGradient id="brandTile" x1="0" y1="0" x2="1" y2="1">
      <stop offset="0%" stop-color="#1B5E3F"/>
      <stop offset="50%" stop-color="#5D4A3A"/>
      <stop offset="100%" stop-color="#E6435A"/>
    </linearGradient>
    <linearGradient id="heroGlow" x1="0" y1="0" x2="0" y2="1">
      <stop offset="0%" stop-color="#1B5E3F" stop-opacity="0.35"/>
      <stop offset="100%" stop-color="#0B1612" stop-opacity="0"/>
    </linearGradient>
    <linearGradient id="betaCard" x1="0" y1="0" x2="1" y2="1">
      <stop offset="0%" stop-color="#1B3328"/>
      <stop offset="100%" stop-color="#0F2019"/>
    </linearGradient>
    <linearGradient id="flagshipCard" x1="0" y1="0" x2="1" y2="1">
      <stop offset="0%" stop-color="#2E1A1D"/>
      <stop offset="100%" stop-color="#18100F"/>
    </linearGradient>
  </defs>

  <!-- Base bg dark (草地夜色) -->
  <rect width="375" height="1700" fill="#0B1612"/>
  <rect x="0" y="0" width="375" height="420" fill="url(#heroGlow)"/>

  <!-- Status bar placeholder -->
  <rect x="0" y="0" width="375" height="44" fill="#08120F"/>
  <text x="24" y="28" fill="#F0EBDD" font-size="14" font-weight="600">9:41</text>
  <text x="340" y="28" fill="#F0EBDD" font-size="12" text-anchor="end">● ● ● ●</text>

  <!-- Brandbar -->
  <rect x="0" y="44" width="375" height="64" fill="#08120F" stroke="#2A3530" stroke-width="0.5"/>
  <rect x="20" y="56" width="40" height="40" rx="10" fill="url(#brandTile)"/>
  <text x="40" y="83" fill="#F0EBDD" font-size="22" font-weight="800" text-anchor="middle">天</text>
  <text x="70" y="75" fill="#F0EBDD" font-size="15" font-weight="700">天喜娛樂</text>
  <text x="70" y="92" fill="#B8B5A8" font-size="10" font-weight="500" letter-spacing="1">TIANXI ENTERTAINMENT</text>
  <!-- theme toggle -->
  <circle cx="340" cy="76" r="14" fill="#1B2824" stroke="#3BBF7A" stroke-width="1"/>
  <path d="M340,69 a7,7 0 1,0 5,14 a5,5 0 0,1 -5,-14z" fill="#E8B838"/>

  <!-- ============ HERO (Beta) ============ -->
  <!-- Beta ribbon -->
  <g transform="translate(20,130)">
    <rect x="0" y="0" width="200" height="26" rx="13" fill="#1B5E3F"/>
    <circle cx="14" cy="13" r="4" fill="#3BBF7A"/>
    <circle cx="14" cy="13" r="7" fill="none" stroke="#3BBF7A" stroke-opacity="0.5" stroke-width="1">
      <animate attributeName="r" values="4;10;4" dur="2s" repeatCount="indefinite"/>
    </circle>
    <text x="26" y="17" fill="#F0EBDD" font-size="11" font-weight="700">Beta 免費 · 全功能開放</text>
  </g>

  <text x="20" y="188" fill="#B8B5A8" font-size="11" letter-spacing="2" font-weight="500">香港賽馬 · AI 預測平台</text>

  <!-- headline -->
  <text x="20" y="226" fill="#F0EBDD" font-size="26" font-weight="800">唔同其他 AI—</text>
  <text x="20" y="258" fill="#F0EBDD" font-size="26" font-weight="800">我哋將決定權</text>
  <text x="20" y="290" fill="#3BBF7A" font-size="26" font-weight="800">交返俾你</text>

  <text x="20" y="322" fill="#C8C4B5" font-size="12.5" font-weight="400">11 年數據 · 獨門 Elo · 靈活因子</text>
  <text x="20" y="340" fill="#C8C4B5" font-size="12.5" font-weight="400">天喜幫你分析 · 最後仲係你話事</text>

  <!-- primary CTA -->
  <g transform="translate(20,360)">
    <rect x="0" y="0" width="335" height="52" rx="14" fill="#3BBF7A"/>
    <text x="167.5" y="27" fill="#0B1612" font-size="15" font-weight="800" text-anchor="middle">免費開始用</text>
    <text x="167.5" y="44" fill="#0B1612" font-size="10" font-weight="500" text-anchor="middle" opacity="0.8">唔使信用卡 · 電郵註冊即用</text>
  </g>

  <!-- trust chips -->
  <g transform="translate(20,432)">
    <rect x="0" y="0" width="155" height="28" rx="14" fill="#18211E" stroke="#2A3530"/>
    <text x="77" y="18" fill="#B8B5A8" font-size="10" text-anchor="middle">886 賽馬日 · 真實數據</text>
    <rect x="165" y="0" width="170" height="28" rx="14" fill="#18211E" stroke="#2A3530"/>
    <text x="250" y="18" fill="#B8B5A8" font-size="10" text-anchor="middle">不賣命中率 · 唔派 tip</text>
  </g>

  <!-- ============ 5 NAV CARDS ============ -->
  <text x="20" y="510" fill="#B8B5A8" font-size="10" letter-spacing="3" font-weight="700">5 個版面</text>
  <text x="20" y="534" fill="#F0EBDD" font-size="18" font-weight="700">今日馬場 · 一 click 到位</text>

  <!-- Card grid 2-col (flagship full-width first) -->
  <!-- Predictor (featured full-width) -->
  <g transform="translate(20,558)">
    <rect x="0" y="0" width="335" height="104" rx="16" fill="url(#flagshipCard)" stroke="#E6435A" stroke-width="1.5"/>
    <rect x="0" y="0" width="5" height="104" rx="2" fill="#E6435A"/>
    <g transform="translate(18,20)">
      <circle cx="14" cy="14" r="14" fill="#3E1F24"/>
      <circle cx="14" cy="14" r="5" fill="none" stroke="#E6435A" stroke-width="1.5"/>
      <line x1="14" y1="3" x2="14" y2="7" stroke="#E6435A" stroke-width="1.5"/>
      <line x1="14" y1="21" x2="14" y2="25" stroke="#E6435A" stroke-width="1.5"/>
      <line x1="3" y1="14" x2="7" y2="14" stroke="#E6435A" stroke-width="1.5"/>
      <line x1="21" y1="14" x2="25" y2="14" stroke="#E6435A" stroke-width="1.5"/>
    </g>
    <text x="58" y="38" fill="#F0EBDD" font-size="16" font-weight="700">選馬神器</text>
    <rect x="138" y="24" width="38" height="18" rx="4" fill="#E6435A"/>
    <text x="157" y="36" fill="#F0EBDD" font-size="9" font-weight="800" text-anchor="middle">王牌</text>
    <text x="58" y="58" fill="#C8C4B5" font-size="11">你揀因子 · AI 計勝率 · 搵值博馬</text>
    <g transform="translate(18,75)">
      <rect x="0" y="0" width="90" height="18" rx="4" fill="#1F2F27"/>
      <text x="45" y="13" fill="#3BBF7A" font-size="9" text-anchor="middle" font-weight="600">12 因子開關</text>
      <rect x="96" y="0" width="90" height="18" rx="4" fill="#1F2F27"/>
      <text x="141" y="13" fill="#3BBF7A" font-size="9" text-anchor="middle" font-weight="600">Elo v1.1</text>
      <rect x="192" y="0" width="90" height="18" rx="4" fill="#1F2F27"/>
      <text x="237" y="13" fill="#3BBF7A" font-size="9" text-anchor="middle" font-weight="600">AI 對話</text>
    </g>
  </g>

  <!-- Dashboard -->
  <g transform="translate(20,680)">
    <rect x="0" y="0" width="160" height="100" rx="14" fill="#151F1B" stroke="#2A3530"/>
    <g transform="translate(14,16)">
      <rect x="0" y="14" width="4" height="12" fill="#3BBF7A"/>
      <rect x="7" y="8" width="4" height="18" fill="#3BBF7A"/>
      <rect x="14" y="2" width="4" height="24" fill="#3BBF7A"/>
      <rect x="21" y="10" width="4" height="16" fill="#3BBF7A"/>
    </g>
    <text x="14" y="68" fill="#F0EBDD" font-size="13" font-weight="700">我的儀表板</text>
    <text x="14" y="85" fill="#B8B5A8" font-size="10">今日全局一眼睇</text>
  </g>

  <!-- Calendar -->
  <g transform="translate(195,680)">
    <rect x="0" y="0" width="160" height="100" rx="14" fill="#151F1B" stroke="#2A3530"/>
    <g transform="translate(14,14)">
      <rect x="0" y="0" width="26" height="24" rx="3" fill="none" stroke="#E8B838" stroke-width="1.5"/>
      <line x1="0" y1="8" x2="26" y2="8" stroke="#E8B838" stroke-width="1.5"/>
      <rect x="4" y="12" width="4" height="4" fill="#E8B838"/>
      <rect x="11" y="12" width="4" height="4" fill="#E8B838"/>
      <rect x="18" y="12" width="4" height="4" fill="#E8B838"/>
      <rect x="4" y="18" width="4" height="4" fill="#E8B838" opacity="0.5"/>
    </g>
    <text x="14" y="68" fill="#F0EBDD" font-size="13" font-weight="700">賽馬日程</text>
    <text x="14" y="85" fill="#B8B5A8" font-size="10">152 個賽馬日</text>
  </g>

  <!-- Encyclopedia -->
  <g transform="translate(20,798)">
    <rect x="0" y="0" width="160" height="100" rx="14" fill="#151F1B" stroke="#2A3530"/>
    <g transform="translate(14,14)">
      <path d="M0,2 L12,0 L12,24 L0,22 Z" fill="none" stroke="#D4B78A" stroke-width="1.5"/>
      <path d="M12,0 L24,2 L24,22 L12,24 Z" fill="none" stroke="#D4B78A" stroke-width="1.5"/>
      <line x1="3" y1="8" x2="10" y2="7" stroke="#D4B78A" stroke-width="1"/>
      <line x1="3" y1="12" x2="10" y2="11" stroke="#D4B78A" stroke-width="1"/>
      <line x1="3" y1="16" x2="9" y2="15" stroke="#D4B78A" stroke-width="1"/>
    </g>
    <text x="14" y="68" fill="#F0EBDD" font-size="13" font-weight="700">馬匹百科</text>
    <text x="14" y="85" fill="#B8B5A8" font-size="10">8,361 場 Wiki</text>
  </g>

  <!-- Lounge -->
  <g transform="translate(195,798)">
    <rect x="0" y="0" width="160" height="100" rx="14" fill="#151F1B" stroke="#2A3530"/>
    <g transform="translate(14,14)">
      <path d="M2,0 L24,0 Q26,0 26,2 L26,16 Q26,18 24,18 L10,18 L4,24 L4,18 L2,18 Q0,18 0,16 L0,2 Q0,0 2,0 Z" fill="none" stroke="#6B8FD1" stroke-width="1.5"/>
      <circle cx="8" cy="9" r="1.5" fill="#6B8FD1"/>
      <circle cx="13" cy="9" r="1.5" fill="#6B8FD1"/>
      <circle cx="18" cy="9" r="1.5" fill="#6B8FD1"/>
    </g>
    <text x="14" y="68" fill="#F0EBDD" font-size="13" font-weight="700">馬圈聊天室</text>
    <text x="14" y="85" fill="#B8B5A8" font-size="10">實時討論 + 私密群</text>
  </g>

  <!-- ============ BETA SECTION (取代定價) ============ -->
  <g transform="translate(20,940)">
    <rect x="0" y="0" width="335" height="340" rx="18" fill="url(#betaCard)" stroke="#3BBF7A" stroke-width="1"/>
    <rect x="0" y="0" width="335" height="4" rx="2" fill="#3BBF7A"/>
    <text x="20" y="34" fill="#3BBF7A" font-size="10" letter-spacing="3" font-weight="700">BETA 免費期</text>
    <text x="20" y="64" fill="#F0EBDD" font-size="22" font-weight="800">全功能開放</text>
    <text x="20" y="90" fill="#F0EBDD" font-size="22" font-weight="800">唔使俾錢</text>
    <text x="20" y="114" fill="#C8C4B5" font-size="11.5">我哋仲喺 beta 階段，想收集真實使用數據</text>
    <text x="20" y="132" fill="#C8C4B5" font-size="11.5">令系統做得更好。呢段時間全部功能免費</text>
    <text x="20" y="150" fill="#C8C4B5" font-size="11.5">解鎖，唔設訂閱、冇廣告。</text>

    <!-- bullets -->
    <g transform="translate(20,168)">
      <g><circle cx="6" cy="6" r="3" fill="#3BBF7A"/><text x="18" y="10" fill="#F0EBDD" font-size="11.5">AI 建議 · 每日每場全部解鎖</text></g>
      <g transform="translate(0,22)"><circle cx="6" cy="6" r="3" fill="#3BBF7A"/><text x="18" y="10" fill="#F0EBDD" font-size="11.5">自選因子 + 自訂權重比例</text></g>
      <g transform="translate(0,44)"><circle cx="6" cy="6" r="3" fill="#3BBF7A"/><text x="18" y="10" fill="#F0EBDD" font-size="11.5">Elo 深度回溯 + 進階聊天室</text></g>
      <g transform="translate(0,66)"><circle cx="6" cy="6" r="3" fill="#3BBF7A"/><text x="18" y="10" fill="#F0EBDD" font-size="11.5">心水追蹤無上限 + 賽後對賬通知</text></g>
    </g>

    <line x1="20" y1="268" x2="315" y2="268" stroke="#2A3530" stroke-width="0.5"/>
    <text x="20" y="290" fill="#8C8878" font-size="10">日後考慮轉化方案時，早期用戶會</text>
    <text x="20" y="304" fill="#8C8878" font-size="10">收到通知並獲優先過渡條件</text>

    <g transform="translate(20,308)">
      <rect x="0" y="0" width="295" height="24" rx="8" fill="#3BBF7A"/>
      <text x="147.5" y="16" fill="#0B1612" font-size="12" font-weight="800" text-anchor="middle">立即免費註冊</text>
    </g>
  </g>

  <!-- ============ 4 大賣點 slogan scroller (static preview) ============ -->
  <text x="20" y="1315" fill="#B8B5A8" font-size="10" letter-spacing="3" font-weight="700">系統優勢</text>
  <g transform="translate(20,1330)">
    <rect x="0" y="0" width="335" height="64" rx="14" fill="#151F1B" stroke="#2A3530"/>
    <text x="20" y="28" fill="#D4B78A" font-size="13" font-weight="700">靈活因子 · 你揀你信</text>
    <text x="20" y="48" fill="#B8B5A8" font-size="10.5">12 個因子 · 你開咩就計咩</text>
    <circle cx="315" cy="32" r="4" fill="#3BBF7A"/>
    <circle cx="303" cy="32" r="4" fill="#2A3530"/>
    <circle cx="291" cy="32" r="4" fill="#2A3530"/>
    <circle cx="279" cy="32" r="4" fill="#2A3530"/>
  </g>

  <!-- ============ BOTTOM CTA ============ -->
  <g transform="translate(20,1420)">
    <rect x="0" y="0" width="335" height="140" rx="18" fill="#0F1814" stroke="#1B5E3F" stroke-width="1"/>
    <text x="167.5" y="34" fill="#F0EBDD" font-size="18" font-weight="700" text-anchor="middle">準備好親身感受？</text>
    <text x="167.5" y="58" fill="#B8B5A8" font-size="11" text-anchor="middle">Beta 版全功能免費試用 · 唔使信用卡</text>
    <g transform="translate(16,76)">
      <rect x="0" y="0" width="303" height="40" rx="12" fill="#3BBF7A"/>
      <text x="151.5" y="25" fill="#0B1612" font-size="13" font-weight="800" text-anchor="middle">免費開始用</text>
    </g>
    <text x="167.5" y="130" fill="#6B6858" font-size="9.5" text-anchor="middle">了解 Beta 計劃 →</text>
  </g>

  <!-- ============ FOOTER ============ -->
  <line x1="20" y1="1590" x2="355" y2="1590" stroke="#2A3530" stroke-width="0.5"/>
  <text x="187.5" y="1614" fill="#6B6858" font-size="9.5" text-anchor="middle">天喜提供賽馬數據分析工具 · 唔係投注建議</text>
  <text x="187.5" y="1630" fill="#6B6858" font-size="9.5" text-anchor="middle">賭博有風險 · 18+ 方可參與</text>
  <text x="187.5" y="1654" fill="#4D4A3E" font-size="9" text-anchor="middle">© 2026 天喜娛樂 · Tianxi Entertainment · 不賣命中率</text>

  <!-- Watchlist FAB -->
  <g transform="translate(315,1310)">
    <circle cx="24" cy="24" r="26" fill="#E6435A" opacity="0.15"/>
    <circle cx="24" cy="24" r="22" fill="#E6435A"/>
    <path d="M24,16 L26,21 L31,21 L27,24 L28.5,29 L24,26 L19.5,29 L21,24 L17,21 L22,21 Z" fill="#F0EBDD"/>
  </g>
</svg>
