<svg width="57" height="59" viewBox="0 0 57 59" fill="none" xmlns="http://www.w3.org/2000/svg">
<g clip-path="url(#clip0_28_116)">
<path d="M44.5625 22.6449C47.7693 22.6449 50.3805 25.267 50.3809 28.4906C50.3809 31.7145 47.7695 34.3373 44.5625 34.3373C41.3557 34.337 38.7451 31.7144 38.7451 28.4906C38.7455 25.2672 41.3559 22.6452 44.5625 22.6449Z" fill="#E0E0E0"/>
<path d="M44.5596 16.6684C45.0342 16.6684 45.4198 17.0561 45.4199 17.5346V20.5229C45.4198 21.0013 45.0342 21.388 44.5596 21.3881C44.0849 21.3881 43.6984 21.0013 43.6982 20.5229V17.5346C43.6984 17.0561 44.0849 16.6684 44.5596 16.6684Z" fill="#E0E0E0"/>
<path d="M44.5596 35.5941C45.0342 35.5942 45.4198 35.9819 45.4199 36.4604V39.4486C45.4198 39.927 45.0342 40.3138 44.5596 40.3139C44.0849 40.3139 43.6984 39.927 43.6982 39.4486V36.4604C43.6984 35.9819 44.0849 35.5942 44.5596 35.5941Z" fill="#E0E0E0"/>
<path d="M51.724 20.0729C52.062 19.7958 52.5612 19.815 52.8763 20.1315L52.9349 20.1979C53.2108 20.5379 53.1915 21.0392 52.8763 21.3561L50.7738 23.4694C50.4586 23.7859 49.9595 23.805 49.6215 23.528L49.557 23.4694C49.2206 23.1313 49.2206 22.5828 49.557 22.2448L51.6595 20.1315L51.724 20.0729Z" fill="#E0E0E0"/>
<path d="M38.4038 33.4545C38.7419 33.1775 39.2411 33.1968 39.5562 33.5131L39.6148 33.5795C39.8724 33.8969 39.8723 34.355 39.6148 34.6723L39.5562 34.7377L37.4537 36.851C37.1385 37.1676 36.6392 37.1875 36.3013 36.9106L36.2359 36.851C35.8998 36.5129 35.8997 35.9643 36.2359 35.6264L38.3384 33.5131L38.4038 33.4545Z" fill="#E0E0E0"/>
<path d="M55.4668 27.6244C55.9415 27.6244 56.327 28.0121 56.3271 28.4906C56.3269 28.969 55.9414 29.3559 55.4668 29.3559H52.4932C52.0185 29.3558 51.6321 28.969 51.6318 28.4906C51.6319 28.0121 52.0185 27.6244 52.4932 27.6244H55.4668Z" fill="#E0E0E0"/>
<path d="M36.6309 27.6244C37.1056 27.6244 37.4911 28.0121 37.4912 28.4906C37.491 28.969 37.1055 29.3559 36.6309 29.3559H33.6572C33.1826 29.3558 32.7961 28.969 32.7959 28.4906C32.796 28.0121 33.1825 27.6244 33.6572 27.6244H36.6309Z" fill="#E0E0E0"/>
<path d="M49.6215 33.455C49.9594 33.1782 50.4578 33.1974 50.7729 33.5135L52.8764 35.6268L52.935 35.6923C53.1926 36.0097 53.1926 36.4687 52.935 36.786L52.8764 36.8514C52.5612 37.1681 52.062 37.188 51.7241 36.911L51.6586 36.8514L49.5561 34.7382C49.2199 34.4001 49.2199 33.8515 49.5561 33.5135L49.6215 33.455Z" fill="#E0E0E0"/>
<path d="M36.305 20.0718C36.6429 19.795 37.1413 19.8142 37.4563 20.1304L39.5599 22.2437L39.6184 22.3101C39.8759 22.6275 39.876 23.0856 39.6184 23.4029L39.5599 23.4683C39.2446 23.7849 38.7456 23.805 38.4075 23.5279L38.3421 23.4683L36.2395 21.355C35.9034 21.0169 35.9034 20.4683 36.2395 20.1304L36.305 20.0718Z" fill="#E0E0E0"/>
<path d="M33.9797 14.7465C37.2736 14.7467 39.9454 17.4167 39.9456 20.7123V40.8461C42.1279 42.5922 43.5383 45.2786 43.5383 48.3051L43.5354 48.5512C43.4045 53.7168 39.1759 57.8645 33.9788 57.8647C28.6991 57.8647 24.4184 53.5847 24.4182 48.3051C24.4182 45.2784 25.8297 42.5922 28.0129 40.8461V20.7123C28.0131 17.4158 30.6865 14.7465 33.9797 14.7465ZM33.9768 30.6801C33.0405 30.6801 32.2798 31.4401 32.2795 32.3764V43.0941C30.0823 43.809 28.4926 45.8686 28.4924 48.3051C28.4925 51.334 30.9479 53.7894 33.9768 53.7895C36.9582 53.7892 39.3831 51.41 39.4583 48.4467L39.4602 48.3051C39.459 45.8685 37.8697 43.8079 35.6731 43.0932V32.3764C35.6728 31.4392 34.9129 30.6803 33.9768 30.6801Z" fill="#FF9C00"/>
<path d="M18.6826 37.1596C18.9686 37.0457 19.2981 37.1121 19.5186 37.3325L19.5605 37.3774C19.7468 37.596 19.7967 37.9006 19.6904 38.1674L19.665 38.2241C19.0262 39.5168 18.7022 40.9096 18.7021 42.3608C18.7023 47.5168 22.8967 51.7112 28.0527 51.7114C29.5041 51.7114 30.8965 51.3874 32.1895 50.7485L32.2461 50.7241C32.5322 50.6101 32.8616 50.6755 33.082 50.896L33.124 50.9409C33.3105 51.1596 33.3605 51.4649 33.2539 51.7319L33.2295 51.7876C31.4182 55.4526 27.669 57.8656 23.4502 57.8657C17.4389 57.8657 12.5481 52.9755 12.5479 46.9643C12.5479 42.7443 14.9619 38.9958 18.626 37.185L18.6826 37.1596Z" fill="#E0E0E0"/>
</g>
<defs>
<clipPath id="clip0_28_116">
<rect width="56" height="58.3932" fill="white" transform="translate(0.5 0.606842)"/>
</clipPath>
</defs>
</svg>
