<svg xmlns="http://www.w3.org/2000/svg" width="375" height="1400" viewBox="0 0 375 1400" font-family="'Noto Sans TC', system-ui">

  <defs>
    <linearGradient id="brandGradient" x1="0%" y1="0%" x2="100%" y2="100%">
      <stop offset="0%" stop-color="#1B5E3F"/>
      <stop offset="50%" stop-color="#D4B78A"/>
      <stop offset="100%" stop-color="#E6435A"/>
    </linearGradient>
    <linearGradient id="greenGradient" x1="0%" y1="0%" x2="100%" y2="0%">
      <stop offset="0%" stop-color="#1B5E3F"/>
      <stop offset="100%" stop-color="#3BBF7A"/>
    </linearGradient>
  </defs>

  <rect width="375" height="1400" fill="#0B1612"/>

  <!-- Status bar -->
  <rect x="0" y="0" width="375" height="44" fill="#0B1612"/>
  <text x="20" y="28" font-family="'Noto Sans TC'" font-size="15" font-weight="600" fill="#F0EBDD">9:41</text>
  <circle cx="310" cy="22" r="2" fill="#F0EBDD"/>
  <circle cx="320" cy="22" r="2" fill="#F0EBDD"/>
  <circle cx="330" cy="22" r="2" fill="#F0EBDD"/>
  <circle cx="340" cy="22" r="2" fill="#F0EBDD"/>

  <!-- Brandbar -->
  <rect x="0" y="44" width="375" height="64" fill="#0B1612"/>
  <g transform="translate(20,56)">
    <rect x="0" y="0" width="40" height="40" rx="10" fill="url(#brandGradient)"/>
    <text x="20" y="27" font-family="'Noto Sans TC'" font-size="20" font-weight="800" fill="#F0EBDD" text-anchor="middle">天</text>
  </g>
  <text x="72" y="76" font-family="'Noto Sans TC'" font-size="15" font-weight="700" fill="#F0EBDD">天喜娛樂</text>
  <text x="72" y="94" font-family="'JetBrains Mono'" font-size="10" font-weight="600" fill="#B8B0A0" letter-spacing="1.5">TIANXI ENTERTAINMENT</text>
  <circle cx="340" cy="76" r="14" fill="none" stroke="#2A3A32" stroke-width="1.5"/>
  <circle cx="340" cy="72" r="5" fill="#3BBF7A"/>

  <!-- Beta pill -->
  <rect x="20" y="120" width="180" height="28" rx="14" fill="#1B5E3F"/>
  <circle cx="34" cy="134" r="4" fill="#3BBF7A"/>
  <text x="44" y="138" font-family="'Noto Sans TC'" font-size="12" font-weight="700" fill="#3BBF7A">Beta 免費 · 全功能開放</text>

  <text x="20" y="186" font-family="'Noto Sans TC'" font-size="24" font-weight="800" fill="#F0EBDD">馬圈聊天室</text>
  <text x="20" y="208" font-family="'Noto Sans TC'" font-size="13" fill="#B8B0A0">實時討論 · Beta 用戶優先</text>

  <rect x="20" y="234" width="335" height="44" rx="10" fill="#13201C" stroke="#2A3A32" stroke-width="1"/>
  <circle cx="40" cy="256" r="5" fill="#3BBF7A"/>
  <text x="54" y="253" font-family="'Noto Sans TC'" font-size="12" font-weight="700" fill="#F0EBDD">#今日第 3 場</text>
  <text x="54" y="268" font-family="'Noto Sans TC'" font-size="10" fill="#B8B0A0">127 位馬迷在線</text>
  <rect x="280" y="244" width="60" height="24" rx="12" fill="#1B5E3F"/>
  <text x="310" y="260" font-family="'Noto Sans TC'" font-size="10" font-weight="700" fill="#3BBF7A" text-anchor="middle">實時</text>

  <circle cx="35" cy="314" r="14" fill="#3BBF7A" opacity="0.3"/>
  <text x="35" y="319" font-family="'Noto Sans TC'" font-size="12" font-weight="700" fill="#3BBF7A" text-anchor="middle">馬</text>
  <rect x="20" y="298" width="255" height="60" rx="14" fill="#13201C" stroke="#2A3A32" stroke-width="1"/>
  <text x="34" y="318" font-family="'Noto Sans TC'" font-size="11" font-weight="700" fill="#3BBF7A">馬迷 A</text>
  <text x="34" y="338" font-family="'Noto Sans TC'" font-size="12" fill="#F0EBDD">時時精綵今日真係 fit 爆，3 號檔有著數</text>
  <text x="261" y="354" font-family="'Noto Sans TC'" font-size="9" fill="#7A7368" text-anchor="end">2 分鐘前</text>

  <circle cx="340" cy="394" r="14" fill="#E8B838" opacity="0.3"/>
  <text x="340" y="399" font-family="'Noto Sans TC'" font-size="12" font-weight="700" fill="#E8B838" text-anchor="middle">你</text>
  <rect x="100" y="378" width="255" height="60" rx="14" fill="#1B5E3F" stroke="#3BBF7A" stroke-width="1"/>
  <text x="114" y="398" font-family="'Noto Sans TC'" font-size="11" font-weight="700" fill="#E8B838">你</text>
  <text x="114" y="418" font-family="'Noto Sans TC'" font-size="12" fill="#F0EBDD">同意，AI 都俾 28% 勝率，值博啊</text>
  <text x="341" y="434" font-family="'Noto Sans TC'" font-size="9" fill="#7A7368" text-anchor="end">1 分鐘前</text>

  <circle cx="35" cy="474" r="14" fill="#D4B78A" opacity="0.3"/>
  <text x="35" y="479" font-family="'Noto Sans TC'" font-size="12" font-weight="700" fill="#D4B78A" text-anchor="middle">馬</text>
  <rect x="20" y="458" width="255" height="60" rx="14" fill="#13201C" stroke="#2A3A32" stroke-width="1"/>
  <text x="34" y="478" font-family="'Noto Sans TC'" font-size="11" font-weight="700" fill="#D4B78A">馬迷 B</text>
  <text x="34" y="498" font-family="'Noto Sans TC'" font-size="12" fill="#F0EBDD">但賠率 8.5 已經偏熱，小心</text>
  <text x="261" y="514" font-family="'Noto Sans TC'" font-size="9" fill="#7A7368" text-anchor="end">剛剛</text>

  <circle cx="35" cy="554" r="14" fill="#E6435A" opacity="0.3"/>
  <text x="35" y="559" font-family="'Noto Sans TC'" font-size="12" font-weight="700" fill="#E6435A" text-anchor="middle">馬</text>
  <rect x="20" y="538" width="255" height="60" rx="14" fill="#13201C" stroke="#2A3A32" stroke-width="1"/>
  <text x="34" y="558" font-family="'Noto Sans TC'" font-size="11" font-weight="700" fill="#E6435A">馬迷 C</text>
  <text x="34" y="578" font-family="'Noto Sans TC'" font-size="12" fill="#F0EBDD">沙田短途往績 4-1-2-0，問題係檔位</text>
  <text x="261" y="594" font-family="'Noto Sans TC'" font-size="9" fill="#7A7368" text-anchor="end">剛剛</text>

  <circle cx="35" cy="634" r="14" fill="#B8B0A0" opacity="0.3"/>
  <text x="35" y="639" font-family="'Noto Sans TC'" font-size="12" font-weight="700" fill="#B8B0A0" text-anchor="middle">馬</text>
  <rect x="20" y="618" width="255" height="60" rx="14" fill="#13201C" stroke="#2A3A32" stroke-width="1"/>
  <text x="34" y="638" font-family="'Noto Sans TC'" font-size="11" font-weight="700" fill="#B8B0A0">馬迷 D</text>
  <text x="34" y="658" font-family="'Noto Sans TC'" font-size="12" fill="#F0EBDD">我押福逸 7 號檔，5 月運氣</text>
  <text x="261" y="674" font-family="'Noto Sans TC'" font-size="9" fill="#7A7368" text-anchor="end">剛剛</text>

  <rect x="20" y="704" width="335" height="76" rx="14" fill="#1B2A24" stroke="#D4B78A" stroke-width="1" stroke-dasharray="4 4"/>
  <rect x="20" y="704" width="4" height="76" rx="2" fill="#D4B78A"/>
  <text x="36" y="726" font-family="'Noto Sans TC'" font-size="11" font-weight="700" fill="#D4B78A" letter-spacing="1.2">天喜 AI 摘要</text>
  <text x="36" y="748" font-family="'Noto Sans TC'" font-size="12" font-weight="700" fill="#F0EBDD">本場討論熱度：時時精綵 (42%) · 福逸 (28%)</text>
  <text x="36" y="766" font-family="'Noto Sans TC'" font-size="10" fill="#B8B0A0">⌇ 馬迷普遍看好 3 號檔 · 檔位爭議係主要變數</text>

  <rect x="20" y="800" width="335" height="56" rx="28" fill="#1B2A24" stroke="#2A3A32" stroke-width="1"/>
  <text x="40" y="834" font-family="'Noto Sans TC'" font-size="13" fill="#7A7368">同馬迷傾計 · 分享你心水...</text>
  <circle cx="325" cy="828" r="18" fill="#3BBF7A"/>
  <path d="M 319 828 L 325 822 L 331 828 M 325 822 L 325 834" stroke="#0B1612" stroke-width="2" fill="none"/>
<rect x="0" y="1308" width="375" height="72" fill="#13201C" stroke="#2A3A32" stroke-width="1"/>
  <circle cx="37" cy="1328" r="14" fill="none" stroke="#7A7368" stroke-width="1.5"/>
  <text x="37" y="1333" font-family="'Noto Sans TC'" font-size="12" font-weight="700" fill="#7A7368" text-anchor="middle">儀</text>
  <text x="37" y="1358" font-family="'Noto Sans TC'" font-size="9" font-weight="600" fill="#7A7368" text-anchor="middle">儀表板</text>
  <circle cx="112" cy="1328" r="14" fill="none" stroke="#7A7368" stroke-width="1.5"/>
  <text x="112" y="1333" font-family="'Noto Sans TC'" font-size="12" font-weight="700" fill="#7A7368" text-anchor="middle">神</text>
  <text x="112" y="1358" font-family="'Noto Sans TC'" font-size="9" font-weight="600" fill="#7A7368" text-anchor="middle">選馬神器</text>
  <circle cx="187" cy="1328" r="14" fill="none" stroke="#7A7368" stroke-width="1.5"/>
  <text x="187" y="1333" font-family="'Noto Sans TC'" font-size="12" font-weight="700" fill="#7A7368" text-anchor="middle">日</text>
  <text x="187" y="1358" font-family="'Noto Sans TC'" font-size="9" font-weight="600" fill="#7A7368" text-anchor="middle">賽馬日程</text>
  <circle cx="262" cy="1328" r="14" fill="none" stroke="#7A7368" stroke-width="1.5"/>
  <text x="262" y="1333" font-family="'Noto Sans TC'" font-size="12" font-weight="700" fill="#7A7368" text-anchor="middle">科</text>
  <text x="262" y="1358" font-family="'Noto Sans TC'" font-size="9" font-weight="600" fill="#7A7368" text-anchor="middle">馬匹百科</text>
  <circle cx="337" cy="1328" r="14" fill="#1B2A24" stroke="#3BBF7A" stroke-width="1.5"/>
  <text x="337" y="1333" font-family="'Noto Sans TC'" font-size="12" font-weight="700" fill="#3BBF7A" text-anchor="middle">聊</text>
  <text x="337" y="1358" font-family="'Noto Sans TC'" font-size="9" font-weight="600" fill="#3BBF7A" text-anchor="middle">馬圈聊天室</text>

</svg>